<svg width="115" height="41" viewBox="0 0 115 41" fill="none" xmlns="http://www.w3.org/2000/svg">
<path d="M60.6274 25.3544C60.113 25.3544 59.594 25.3357 59.0703 25.2983C58.5466 25.2702 58.0883 25.2048 57.6956 25.1019V15.6612C57.9013 15.6238 58.1211 15.5911 58.3549 15.563C58.5887 15.5256 58.8271 15.4976 59.0703 15.4789C59.3134 15.4602 59.5519 15.4461 59.7857 15.4368C60.0288 15.4274 60.258 15.4227 60.4731 15.4227C61.0622 15.4227 61.6093 15.4695 62.1143 15.563C62.6193 15.6472 63.0542 15.7921 63.4189 15.9979C63.793 16.2036 64.0829 16.4748 64.2886 16.8115C64.4944 17.1482 64.5972 17.5643 64.5972 18.06C64.5972 18.5182 64.485 18.911 64.2606 19.2383C64.0455 19.5656 63.7415 19.8275 63.3488 20.0239C63.9379 20.2202 64.3728 20.5102 64.6533 20.8936C64.9339 21.277 65.0742 21.7633 65.0742 22.3525C65.0742 23.3531 64.7094 24.1059 63.98 24.6109C63.2506 25.1066 62.133 25.3544 60.6274 25.3544ZM59.435 20.8655V23.8254C59.6314 23.8441 59.8418 23.8581 60.0663 23.8675C60.2907 23.8768 60.4964 23.8815 60.6835 23.8815C61.0482 23.8815 61.3849 23.8581 61.6935 23.8114C62.0114 23.7646 62.2826 23.6851 62.5071 23.5729C62.7409 23.4513 62.9232 23.2923 63.0542 23.0959C63.1944 22.8995 63.2646 22.647 63.2646 22.3384C63.2646 21.7867 63.0635 21.4033 62.6614 21.1882C62.2593 20.9731 61.7028 20.8655 60.9921 20.8655H59.435ZM59.435 19.4768H60.6835C61.3568 19.4768 61.8852 19.3833 62.2686 19.1962C62.652 18.9998 62.8438 18.6538 62.8438 18.1582C62.8438 17.6906 62.6427 17.3586 62.2406 17.1622C61.8478 16.9658 61.3334 16.8676 60.6975 16.8676C60.4263 16.8676 60.1831 16.8723 59.9681 16.8816C59.7623 16.891 59.5846 16.905 59.435 16.9237V19.4768ZM73.1293 25.0177C72.802 25.1019 72.3765 25.1861 71.8528 25.2702C71.3291 25.3638 70.7539 25.4105 70.1273 25.4105C69.5382 25.4105 69.0425 25.3264 68.6404 25.158C68.2476 24.9897 67.9297 24.7559 67.6865 24.4566C67.4527 24.1574 67.2844 23.802 67.1815 23.3905C67.0786 22.9697 67.0272 22.5114 67.0272 22.0158V17.9057H68.7246V21.7493C68.7246 22.5348 68.8368 23.0959 69.0612 23.4326C69.295 23.7693 69.6972 23.9376 70.2676 23.9376C70.4734 23.9376 70.6885 23.9283 70.9129 23.9095C71.1467 23.8908 71.3197 23.8675 71.4319 23.8394V17.9057H73.1293V25.0177ZM81.5601 17.9057C80.8026 20.6925 79.9235 23.2175 78.9229 25.4807C78.7358 25.9015 78.5441 26.2615 78.3477 26.5608C78.1513 26.8601 77.9316 27.1079 77.6884 27.3043C77.4453 27.5007 77.1741 27.6409 76.8748 27.7251C76.5756 27.8186 76.2295 27.8654 75.8368 27.8654C75.5749 27.8654 75.3131 27.8373 75.0512 27.7812C74.7987 27.7251 74.607 27.6643 74.4761 27.5989L74.7847 26.2382C75.1213 26.3691 75.4533 26.4345 75.7806 26.4345C76.2202 26.4345 76.5615 26.327 76.8047 26.1119C77.0572 25.9062 77.2769 25.5835 77.464 25.144C76.9309 24.1153 76.4166 22.9931 75.9209 21.7773C75.4346 20.5616 74.9998 19.271 74.6163 17.9057H76.4259C76.5194 18.2984 76.6317 18.7239 76.7626 19.1822C76.9029 19.6404 77.0525 20.108 77.2115 20.585C77.3705 21.0526 77.5388 21.5202 77.7165 21.9877C77.8942 22.4553 78.0719 22.8902 78.2495 23.2923C78.5488 22.46 78.8294 21.5763 79.0912 20.6411C79.3531 19.6965 79.5915 18.7847 79.8066 17.9057H81.5601ZM86.6796 18.1441C87.0069 18.0506 87.4324 17.9618 87.9561 17.8776C88.4798 17.7934 89.0596 17.7514 89.6955 17.7514C90.2941 17.7514 90.7944 17.8355 91.1965 18.0039C91.5986 18.1628 91.9166 18.392 92.1504 18.6912C92.3936 18.9811 92.5619 19.3365 92.6554 19.7573C92.7583 20.1688 92.8097 20.6224 92.8097 21.118V25.2422H91.1124V21.3845C91.1124 20.9918 91.0843 20.6598 91.0282 20.3886C90.9814 20.108 90.8973 19.8836 90.7757 19.7152C90.6635 19.5376 90.5045 19.4113 90.2987 19.3365C90.1024 19.2523 89.8592 19.2102 89.5693 19.2102C89.3542 19.2102 89.1298 19.2243 88.896 19.2523C88.6622 19.2804 88.4892 19.3038 88.3769 19.3225V25.2422H86.6796V18.1441ZM101.801 21.5669C101.801 22.1467 101.717 22.6751 101.548 23.152C101.38 23.629 101.142 24.0358 100.833 24.3725C100.524 24.7091 100.15 24.971 99.7108 25.158C99.2806 25.3451 98.8037 25.4386 98.28 25.4386C97.7563 25.4386 97.2794 25.3451 96.8492 25.158C96.419 24.971 96.0496 24.7091 95.741 24.3725C95.4324 24.0358 95.1892 23.629 95.0115 23.152C94.8432 22.6751 94.759 22.1467 94.759 21.5669C94.759 20.9871 94.8432 20.4634 95.0115 19.9958C95.1892 19.5189 95.4324 19.112 95.741 18.7754C96.0589 18.4387 96.433 18.1815 96.8632 18.0039C97.2934 17.8168 97.7656 17.7233 98.28 17.7233C98.7944 17.7233 99.2666 17.8168 99.6968 18.0039C100.136 18.1815 100.51 18.4387 100.819 18.7754C101.128 19.112 101.366 19.5189 101.534 19.9958C101.712 20.4634 101.801 20.9871 101.801 21.5669ZM100.062 21.5669C100.062 20.8375 99.9025 20.2623 99.5846 19.8415C99.276 19.4113 98.8411 19.1962 98.28 19.1962C97.7189 19.1962 97.2794 19.4113 96.9614 19.8415C96.6528 20.2623 96.4985 20.8375 96.4985 21.5669C96.4985 22.3057 96.6528 22.8902 96.9614 23.3204C97.2794 23.7506 97.7189 23.9657 98.28 23.9657C98.8411 23.9657 99.276 23.7506 99.5846 23.3204C99.9025 22.8902 100.062 22.3057 100.062 21.5669ZM108.056 20.627C107.841 21.45 107.607 22.2543 107.355 23.0398C107.112 23.816 106.868 24.5502 106.625 25.2422H105.237C105.05 24.812 104.853 24.321 104.647 23.7693C104.442 23.2175 104.236 22.6283 104.03 22.0018C103.824 21.3752 103.619 20.7159 103.413 20.0239C103.207 19.3318 103.006 18.6258 102.81 17.9057H104.605C104.689 18.2984 104.788 18.7239 104.9 19.1822C105.012 19.6311 105.129 20.094 105.251 20.5709C105.372 21.0385 105.498 21.4968 105.629 21.9457C105.76 22.3945 105.891 22.806 106.022 23.1801C106.162 22.7499 106.298 22.3057 106.429 21.8475C106.569 21.3892 106.7 20.931 106.822 20.4727C106.943 20.0145 107.056 19.5703 107.158 19.1401C107.271 18.7006 107.369 18.2891 107.453 17.9057H108.758C108.842 18.2891 108.935 18.7006 109.038 19.1401C109.141 19.5703 109.249 20.0145 109.361 20.4727C109.482 20.931 109.609 21.3892 109.739 21.8475C109.88 22.3057 110.02 22.7499 110.16 23.1801C110.282 22.806 110.408 22.3945 110.539 21.9457C110.67 21.4968 110.796 21.0385 110.918 20.5709C111.049 20.094 111.17 19.6311 111.283 19.1822C111.395 18.7239 111.493 18.2984 111.577 17.9057H113.331C113.134 18.6258 112.933 19.3318 112.727 20.0239C112.522 20.7159 112.316 21.3752 112.11 22.0018C111.904 22.6283 111.699 23.2175 111.493 23.7693C111.287 24.321 111.086 24.812 110.89 25.2422H109.515C109.272 24.5502 109.019 23.816 108.758 23.0398C108.505 22.2543 108.271 21.45 108.056 20.627Z" fill="#17181A"/>
<rect x="0.419922" y="0.124512" width="40.6806" height="40.6806" fill="#42454A"/>
<path d="M29.1777 20.4647L24.9452 16.9578L24.9452 19.7633L12.3444 19.7633L12.3444 21.1661L24.9452 21.1661L24.9452 23.9717L29.1777 20.4647Z" fill="#F7EAE3"/>
</svg>
