<svg width="87" height="65" viewBox="0 0 87 65" fill="none" xmlns="http://www.w3.org/2000/svg">
<path d="M9.486 2.93C9.678 3.578 9.882 4.256 10.098 4.964C10.314 5.66 10.536 6.362 10.764 7.07C11.004 7.766 11.238 8.456 11.466 9.14C11.706 9.812 11.934 10.448 12.15 11.048C12.33 10.4 12.504 9.698 12.672 8.942C12.84 8.174 13.008 7.382 13.176 6.566C13.344 5.738 13.506 4.898 13.662 4.046C13.83 3.194 13.986 2.354 14.13 1.526H16.47C16.05 3.782 15.582 5.954 15.066 8.042C14.55 10.118 13.974 12.104 13.338 14H11.178C10.242 11.576 9.336 8.93 8.46 6.062C8.016 7.514 7.566 8.894 7.11 10.202C6.654 11.51 6.198 12.776 5.742 14H3.582C2.934 12.104 2.352 10.118 1.836 8.042C1.332 5.954 0.87 3.782 0.45 1.526H2.88C3.024 2.342 3.174 3.176 3.33 4.028C3.498 4.88 3.666 5.72 3.834 6.548C4.014 7.364 4.194 8.156 4.374 8.924C4.554 9.692 4.734 10.4 4.914 11.048C5.142 10.436 5.37 9.794 5.598 9.122C5.838 8.438 6.072 7.748 6.3 7.052C6.528 6.344 6.744 5.642 6.948 4.946C7.164 4.25 7.362 3.578 7.542 2.93H9.486ZM21.296 12.47C21.968 12.47 22.478 12.434 22.826 12.362V9.95C22.706 9.914 22.532 9.878 22.304 9.842C22.076 9.806 21.824 9.788 21.548 9.788C21.308 9.788 21.062 9.806 20.81 9.842C20.57 9.878 20.348 9.944 20.144 10.04C19.952 10.136 19.796 10.274 19.676 10.454C19.556 10.622 19.496 10.838 19.496 11.102C19.496 11.618 19.658 11.978 19.982 12.182C20.306 12.374 20.744 12.47 21.296 12.47ZM21.116 4.352C21.836 4.352 22.442 4.442 22.934 4.622C23.426 4.802 23.816 5.054 24.104 5.378C24.404 5.702 24.614 6.098 24.734 6.566C24.866 7.022 24.932 7.526 24.932 8.078V13.784C24.596 13.856 24.086 13.94 23.402 14.036C22.73 14.144 21.968 14.198 21.116 14.198C20.552 14.198 20.036 14.144 19.568 14.036C19.1 13.928 18.698 13.754 18.362 13.514C18.038 13.274 17.78 12.962 17.588 12.578C17.408 12.194 17.318 11.72 17.318 11.156C17.318 10.616 17.42 10.16 17.624 9.788C17.84 9.416 18.128 9.116 18.488 8.888C18.848 8.648 19.262 8.48 19.73 8.384C20.21 8.276 20.708 8.222 21.224 8.222C21.464 8.222 21.716 8.24 21.98 8.276C22.244 8.3 22.526 8.348 22.826 8.42V8.06C22.826 7.808 22.796 7.568 22.736 7.34C22.676 7.112 22.568 6.914 22.412 6.746C22.268 6.566 22.07 6.428 21.818 6.332C21.578 6.236 21.272 6.188 20.9 6.188C20.396 6.188 19.934 6.224 19.514 6.296C19.094 6.368 18.752 6.452 18.488 6.548L18.218 4.784C18.494 4.688 18.896 4.592 19.424 4.496C19.952 4.4 20.516 4.352 21.116 4.352ZM27.6712 2.102L29.8492 1.742V4.586H33.1972V6.404H29.8492V10.238C29.8492 10.994 29.9692 11.534 30.2092 11.858C30.4492 12.182 30.8572 12.344 31.4332 12.344C31.8292 12.344 32.1772 12.302 32.4772 12.218C32.7892 12.134 33.0352 12.056 33.2152 11.984L33.5752 13.712C33.3232 13.82 32.9932 13.928 32.5852 14.036C32.1772 14.156 31.6972 14.216 31.1452 14.216C30.4732 14.216 29.9092 14.126 29.4532 13.946C29.0092 13.766 28.6552 13.508 28.3912 13.172C28.1272 12.824 27.9412 12.41 27.8332 11.93C27.7252 11.438 27.6712 10.88 27.6712 10.256V2.102ZM34.7673 9.302C34.7673 8.606 34.8753 7.958 35.0913 7.358C35.3073 6.746 35.6133 6.218 36.0093 5.774C36.4173 5.33 36.9093 4.982 37.4853 4.73C38.0613 4.478 38.7093 4.352 39.4293 4.352C40.3173 4.352 41.1573 4.514 41.9493 4.838L41.4813 6.62C41.2293 6.512 40.9413 6.422 40.6173 6.35C40.3053 6.278 39.9693 6.242 39.6093 6.242C38.7573 6.242 38.1093 6.512 37.6653 7.052C37.2213 7.58 36.9993 8.33 36.9993 9.302C36.9993 10.238 37.2093 10.982 37.6293 11.534C38.0493 12.074 38.7573 12.344 39.7533 12.344C40.1253 12.344 40.4913 12.308 40.8513 12.236C41.2113 12.164 41.5233 12.074 41.7873 11.966L42.0933 13.766C41.8533 13.886 41.4873 13.994 40.9953 14.09C40.5153 14.186 40.0173 14.234 39.5013 14.234C38.6973 14.234 37.9953 14.114 37.3953 13.874C36.8073 13.622 36.3153 13.28 35.9193 12.848C35.5353 12.404 35.2473 11.882 35.0553 11.282C34.8633 10.67 34.7673 10.01 34.7673 9.302ZM43.9595 14V0.391999L46.1375 0.0319996V4.694C46.3775 4.61 46.6535 4.538 46.9655 4.478C47.2895 4.418 47.6075 4.388 47.9195 4.388C48.6755 4.388 49.2995 4.496 49.7915 4.712C50.2955 4.916 50.6975 5.21 50.9975 5.594C51.2975 5.966 51.5075 6.416 51.6275 6.944C51.7595 7.472 51.8255 8.06 51.8255 8.708V14H49.6475V9.05C49.6475 8.546 49.6115 8.12 49.5395 7.772C49.4795 7.412 49.3715 7.124 49.2155 6.908C49.0715 6.68 48.8735 6.518 48.6215 6.422C48.3695 6.314 48.0575 6.26 47.6855 6.26C47.3975 6.26 47.1035 6.29 46.8035 6.35C46.5035 6.41 46.2815 6.464 46.1375 6.512V14H43.9595ZM67.5113 9.284C67.5113 10.028 67.4033 10.706 67.1873 11.318C66.9713 11.93 66.6653 12.452 66.2693 12.884C65.8733 13.316 65.3933 13.652 64.8293 13.892C64.2773 14.132 63.6653 14.252 62.9933 14.252C62.3213 14.252 61.7093 14.132 61.1573 13.892C60.6053 13.652 60.1313 13.316 59.7353 12.884C59.3393 12.452 59.0273 11.93 58.7993 11.318C58.5833 10.706 58.4753 10.028 58.4753 9.284C58.4753 8.54 58.5833 7.868 58.7993 7.268C59.0273 6.656 59.3393 6.134 59.7353 5.702C60.1433 5.27 60.6233 4.94 61.1753 4.712C61.7273 4.472 62.3333 4.352 62.9933 4.352C63.6533 4.352 64.2593 4.472 64.8113 4.712C65.3753 4.94 65.8553 5.27 66.2513 5.702C66.6473 6.134 66.9533 6.656 67.1693 7.268C67.3973 7.868 67.5113 8.54 67.5113 9.284ZM65.2793 9.284C65.2793 8.348 65.0753 7.61 64.6673 7.07C64.2713 6.518 63.7133 6.242 62.9933 6.242C62.2733 6.242 61.7093 6.518 61.3013 7.07C60.9053 7.61 60.7073 8.348 60.7073 9.284C60.7073 10.232 60.9053 10.982 61.3013 11.534C61.7093 12.086 62.2733 12.362 62.9933 12.362C63.7133 12.362 64.2713 12.086 64.6673 11.534C65.0753 10.982 65.2793 10.232 65.2793 9.284ZM77.6571 13.712C77.2371 13.82 76.6911 13.928 76.0191 14.036C75.3471 14.156 74.6091 14.216 73.8051 14.216C73.0491 14.216 72.4131 14.108 71.8971 13.892C71.3931 13.676 70.9851 13.376 70.6731 12.992C70.3731 12.608 70.1571 12.152 70.0251 11.624C69.8931 11.084 69.8271 10.496 69.8271 9.86V4.586H72.0051V9.518C72.0051 10.526 72.1491 11.246 72.4371 11.678C72.7371 12.11 73.2531 12.326 73.9851 12.326C74.2491 12.326 74.5251 12.314 74.8131 12.29C75.1131 12.266 75.3351 12.236 75.4791 12.2V4.586H77.6571V13.712ZM85.9732 6.548C85.7932 6.488 85.5412 6.428 85.2172 6.368C84.9052 6.296 84.5392 6.26 84.1192 6.26C83.8792 6.26 83.6212 6.284 83.3452 6.332C83.0812 6.38 82.8952 6.422 82.7872 6.458V14H80.6092V5.036C81.0292 4.88 81.5512 4.736 82.1752 4.604C82.8112 4.46 83.5132 4.388 84.2812 4.388C84.4252 4.388 84.5932 4.4 84.7852 4.424C84.9772 4.436 85.1692 4.46 85.3612 4.496C85.5532 4.52 85.7392 4.556 85.9192 4.604C86.0992 4.64 86.2432 4.676 86.3512 4.712L85.9732 6.548ZM3.798 39C3.198 37.764 2.58 36.348 1.944 34.752C1.32 33.144 0.75 31.422 0.234 29.586H2.556C2.688 30.114 2.838 30.684 3.006 31.296C3.186 31.896 3.372 32.502 3.564 33.114C3.768 33.714 3.972 34.302 4.176 34.878C4.392 35.442 4.59 35.952 4.77 36.408C4.95 35.952 5.142 35.442 5.346 34.878C5.55 34.302 5.748 33.714 5.94 33.114C6.144 32.502 6.336 31.896 6.516 31.296C6.696 30.684 6.852 30.114 6.984 29.586H9.234C8.718 31.422 8.142 33.144 7.506 34.752C6.882 36.348 6.27 37.764 5.67 39H3.798ZM13.2366 39H11.0586V29.586H13.2366V39ZM13.4706 26.832C13.4706 27.24 13.3386 27.564 13.0746 27.804C12.8106 28.044 12.4986 28.164 12.1386 28.164C11.7666 28.164 11.4486 28.044 11.1846 27.804C10.9206 27.564 10.7886 27.24 10.7886 26.832C10.7886 26.412 10.9206 26.082 11.1846 25.842C11.4486 25.602 11.7666 25.482 12.1386 25.482C12.4986 25.482 12.8106 25.602 13.0746 25.842C13.3386 26.082 13.4706 26.412 13.4706 26.832ZM17.9052 34.266C17.9052 35.226 18.1332 35.982 18.5892 36.534C19.0452 37.074 19.6752 37.344 20.4792 37.344C20.8272 37.344 21.1212 37.332 21.3612 37.308C21.6132 37.272 21.8172 37.236 21.9732 37.2V31.8C21.7812 31.668 21.5232 31.548 21.1992 31.44C20.8872 31.32 20.5512 31.26 20.1912 31.26C19.3992 31.26 18.8172 31.53 18.4452 32.07C18.0852 32.61 17.9052 33.342 17.9052 34.266ZM24.1512 38.712C23.7192 38.844 23.1732 38.964 22.5132 39.072C21.8652 39.18 21.1812 39.234 20.4612 39.234C19.7172 39.234 19.0512 39.12 18.4632 38.892C17.8752 38.664 17.3712 38.34 16.9512 37.92C16.5432 37.488 16.2252 36.972 15.9972 36.372C15.7812 35.76 15.6732 35.076 15.6732 34.32C15.6732 33.576 15.7632 32.904 15.9432 32.304C16.1352 31.692 16.4112 31.17 16.7712 30.738C17.1312 30.306 17.5692 29.976 18.0852 29.748C18.6012 29.508 19.1952 29.388 19.8672 29.388C20.3232 29.388 20.7252 29.442 21.0732 29.55C21.4212 29.658 21.7212 29.778 21.9732 29.91V25.392L24.1512 25.032V38.712ZM26.5759 34.338C26.5759 33.51 26.6959 32.784 26.9359 32.16C27.1879 31.536 27.5179 31.02 27.9259 30.612C28.3339 30.192 28.8019 29.88 29.3299 29.676C29.8579 29.46 30.3979 29.352 30.9499 29.352C32.2459 29.352 33.2539 29.754 33.9739 30.558C34.7059 31.362 35.0719 32.562 35.0719 34.158C35.0719 34.278 35.0659 34.416 35.0539 34.572C35.0539 34.716 35.0479 34.848 35.0359 34.968H28.8259C28.8859 35.724 29.1499 36.312 29.6179 36.732C30.0979 37.14 30.7879 37.344 31.6879 37.344C32.2159 37.344 32.6959 37.296 33.1279 37.2C33.5719 37.104 33.9199 37.002 34.1719 36.894L34.4599 38.676C34.3399 38.736 34.1719 38.802 33.9559 38.874C33.7519 38.934 33.5119 38.988 33.2359 39.036C32.9719 39.096 32.6839 39.144 32.3719 39.18C32.0599 39.216 31.7419 39.234 31.4179 39.234C30.5899 39.234 29.8699 39.114 29.2579 38.874C28.6459 38.622 28.1419 38.28 27.7459 37.848C27.3499 37.404 27.0559 36.888 26.8639 36.3C26.6719 35.7 26.5759 35.046 26.5759 34.338ZM32.8939 33.366C32.8939 33.066 32.8519 32.784 32.7679 32.52C32.6839 32.244 32.5579 32.01 32.3899 31.818C32.2339 31.614 32.0359 31.458 31.7959 31.35C31.5679 31.23 31.2919 31.17 30.9679 31.17C30.6319 31.17 30.3379 31.236 30.0859 31.368C29.8339 31.488 29.6179 31.65 29.4379 31.854C29.2699 32.058 29.1379 32.292 29.0419 32.556C28.9459 32.82 28.8799 33.09 28.8439 33.366H32.8939ZM46.0751 34.284C46.0751 35.028 45.9671 35.706 45.7511 36.318C45.5351 36.93 45.2291 37.452 44.8331 37.884C44.4371 38.316 43.9571 38.652 43.3931 38.892C42.8411 39.132 42.2291 39.252 41.5571 39.252C40.8851 39.252 40.2731 39.132 39.7211 38.892C39.1691 38.652 38.6951 38.316 38.2991 37.884C37.9031 37.452 37.5911 36.93 37.3631 36.318C37.1471 35.706 37.0391 35.028 37.0391 34.284C37.0391 33.54 37.1471 32.868 37.3631 32.268C37.5911 31.656 37.9031 31.134 38.2991 30.702C38.7071 30.27 39.1871 29.94 39.7391 29.712C40.2911 29.472 40.8971 29.352 41.5571 29.352C42.2171 29.352 42.8231 29.472 43.3751 29.712C43.9391 29.94 44.4191 30.27 44.8151 30.702C45.2111 31.134 45.5171 31.656 45.7331 32.268C45.9611 32.868 46.0751 33.54 46.0751 34.284ZM43.8431 34.284C43.8431 33.348 43.6391 32.61 43.2311 32.07C42.8351 31.518 42.2771 31.242 41.5571 31.242C40.8371 31.242 40.2731 31.518 39.8651 32.07C39.4691 32.61 39.2711 33.348 39.2711 34.284C39.2711 35.232 39.4691 35.982 39.8651 36.534C40.2731 37.086 40.8371 37.362 41.5571 37.362C42.2771 37.362 42.8351 37.086 43.2311 36.534C43.6391 35.982 43.8431 35.232 43.8431 34.284ZM52.8801 39V25.392L55.0581 25.032V29.694C55.2981 29.61 55.5741 29.538 55.8861 29.478C56.2101 29.418 56.5281 29.388 56.8401 29.388C57.5961 29.388 58.2201 29.496 58.7121 29.712C59.2161 29.916 59.6181 30.21 59.9181 30.594C60.2181 30.966 60.4281 31.416 60.5481 31.944C60.6801 32.472 60.7461 33.06 60.7461 33.708V39H58.5681V34.05C58.5681 33.546 58.5321 33.12 58.4601 32.772C58.4001 32.412 58.2921 32.124 58.1361 31.908C57.9921 31.68 57.7941 31.518 57.5421 31.422C57.2901 31.314 56.9781 31.26 56.6061 31.26C56.3181 31.26 56.0241 31.29 55.7241 31.35C55.4241 31.41 55.2021 31.464 55.0581 31.512V39H52.8801ZM72.0506 34.284C72.0506 35.028 71.9426 35.706 71.7266 36.318C71.5106 36.93 71.2046 37.452 70.8086 37.884C70.4126 38.316 69.9326 38.652 69.3686 38.892C68.8166 39.132 68.2046 39.252 67.5326 39.252C66.8606 39.252 66.2486 39.132 65.6966 38.892C65.1446 38.652 64.6706 38.316 64.2746 37.884C63.8786 37.452 63.5666 36.93 63.3386 36.318C63.1226 35.706 63.0146 35.028 63.0146 34.284C63.0146 33.54 63.1226 32.868 63.3386 32.268C63.5666 31.656 63.8786 31.134 64.2746 30.702C64.6826 30.27 65.1626 29.94 65.7146 29.712C66.2666 29.472 66.8726 29.352 67.5326 29.352C68.1926 29.352 68.7986 29.472 69.3506 29.712C69.9146 29.94 70.3946 30.27 70.7906 30.702C71.1866 31.134 71.4926 31.656 71.7086 32.268C71.9366 32.868 72.0506 33.54 72.0506 34.284ZM69.8186 34.284C69.8186 33.348 69.6146 32.61 69.2066 32.07C68.8106 31.518 68.2526 31.242 67.5326 31.242C66.8126 31.242 66.2486 31.518 65.8406 32.07C65.4446 32.61 65.2466 33.348 65.2466 34.284C65.2466 35.232 65.4446 35.982 65.8406 36.534C66.2486 37.086 66.8126 37.362 67.5326 37.362C68.2526 37.362 68.8106 37.086 69.2066 36.534C69.6146 35.982 69.8186 35.232 69.8186 34.284ZM79.8971 33.078C79.6211 34.134 79.3211 35.166 78.9971 36.174C78.6851 37.17 78.3731 38.112 78.0611 39H76.2791C76.0391 38.448 75.7871 37.818 75.5231 37.11C75.2591 36.402 74.9951 35.646 74.7311 34.842C74.4671 34.038 74.2031 33.192 73.9391 32.304C73.6751 31.416 73.4171 30.51 73.1651 29.586H75.4691C75.5771 30.09 75.7031 30.636 75.8471 31.224C75.9911 31.8 76.1411 32.394 76.2971 33.006C76.4531 33.606 76.6151 34.194 76.7831 34.77C76.9511 35.346 77.1191 35.874 77.2871 36.354C77.4671 35.802 77.6411 35.232 77.8091 34.644C77.9891 34.056 78.1571 33.468 78.3131 32.88C78.4691 32.292 78.6131 31.722 78.7451 31.17C78.8891 30.606 79.0151 30.078 79.1231 29.586H80.7971C80.9051 30.078 81.0251 30.606 81.1571 31.17C81.2891 31.722 81.4271 32.292 81.5711 32.88C81.7271 33.468 81.8891 34.056 82.0571 34.644C82.2371 35.232 82.4171 35.802 82.5971 36.354C82.7531 35.874 82.9151 35.346 83.0831 34.77C83.2511 34.194 83.4131 33.606 83.5691 33.006C83.7371 32.394 83.8931 31.8 84.0371 31.224C84.1811 30.636 84.3071 30.09 84.4151 29.586H86.6651C86.4131 30.51 86.1551 31.416 85.8911 32.304C85.6271 33.192 85.3631 34.038 85.0991 34.842C84.8351 35.646 84.5711 36.402 84.3071 37.11C84.0431 37.818 83.7851 38.448 83.5331 39H81.7691C81.4571 38.112 81.1331 37.17 80.7971 36.174C80.4731 35.166 80.1731 34.134 79.8971 33.078ZM3.582 64H1.404V54.586H3.582V64ZM3.816 51.832C3.816 52.24 3.684 52.564 3.42 52.804C3.156 53.044 2.844 53.164 2.484 53.164C2.112 53.164 1.794 53.044 1.53 52.804C1.266 52.564 1.134 52.24 1.134 51.832C1.134 51.412 1.266 51.082 1.53 50.842C1.794 50.602 2.112 50.482 2.484 50.482C2.844 50.482 3.156 50.602 3.42 50.842C3.684 51.082 3.816 51.412 3.816 51.832ZM6.43261 52.102L8.61061 51.742V54.586H11.9586V56.404H8.61061V60.238C8.61061 60.994 8.73061 61.534 8.97061 61.858C9.21061 62.182 9.61861 62.344 10.1946 62.344C10.5906 62.344 10.9386 62.302 11.2386 62.218C11.5506 62.134 11.7966 62.056 11.9766 61.984L12.3366 63.712C12.0846 63.82 11.7546 63.928 11.3466 64.036C10.9386 64.156 10.4586 64.216 9.90661 64.216C9.23461 64.216 8.67061 64.126 8.21461 63.946C7.77061 63.766 7.41661 63.508 7.15261 63.172C6.88861 62.824 6.70261 62.41 6.59461 61.93C6.48661 61.438 6.43261 60.88 6.43261 60.256V52.102ZM24.2412 58.078C23.9652 59.134 23.6652 60.166 23.3412 61.174C23.0292 62.17 22.7172 63.112 22.4052 64H20.6232C20.3832 63.448 20.1312 62.818 19.8672 62.11C19.6032 61.402 19.3392 60.646 19.0752 59.842C18.8112 59.038 18.5472 58.192 18.2832 57.304C18.0192 56.416 17.7612 55.51 17.5092 54.586H19.8132C19.9212 55.09 20.0472 55.636 20.1912 56.224C20.3352 56.8 20.4852 57.394 20.6412 58.006C20.7972 58.606 20.9592 59.194 21.1272 59.77C21.2952 60.346 21.4632 60.874 21.6312 61.354C21.8112 60.802 21.9852 60.232 22.1532 59.644C22.3332 59.056 22.5012 58.468 22.6572 57.88C22.8132 57.292 22.9572 56.722 23.0892 56.17C23.2332 55.606 23.3592 55.078 23.4672 54.586H25.1412C25.2492 55.078 25.3692 55.606 25.5012 56.17C25.6332 56.722 25.7712 57.292 25.9152 57.88C26.0712 58.468 26.2332 59.056 26.4012 59.644C26.5812 60.232 26.7612 60.802 26.9412 61.354C27.0972 60.874 27.2592 60.346 27.4272 59.77C27.5952 59.194 27.7572 58.606 27.9132 58.006C28.0812 57.394 28.2372 56.8 28.3812 56.224C28.5252 55.636 28.6512 55.09 28.7592 54.586H31.0092C30.7572 55.51 30.4992 56.416 30.2352 57.304C29.9712 58.192 29.7072 59.038 29.4432 59.842C29.1792 60.646 28.9152 61.402 28.6512 62.11C28.3872 62.818 28.1292 63.448 27.8772 64H26.1132C25.8012 63.112 25.4772 62.17 25.1412 61.174C24.8172 60.166 24.5172 59.134 24.2412 58.078ZM41.1884 59.284C41.1884 60.028 41.0804 60.706 40.8644 61.318C40.6484 61.93 40.3424 62.452 39.9464 62.884C39.5504 63.316 39.0704 63.652 38.5064 63.892C37.9544 64.132 37.3424 64.252 36.6704 64.252C35.9984 64.252 35.3864 64.132 34.8344 63.892C34.2824 63.652 33.8084 63.316 33.4124 62.884C33.0164 62.452 32.7044 61.93 32.4764 61.318C32.2604 60.706 32.1524 60.028 32.1524 59.284C32.1524 58.54 32.2604 57.868 32.4764 57.268C32.7044 56.656 33.0164 56.134 33.4124 55.702C33.8204 55.27 34.3004 54.94 34.8524 54.712C35.4044 54.472 36.0104 54.352 36.6704 54.352C37.3304 54.352 37.9364 54.472 38.4884 54.712C39.0524 54.94 39.5324 55.27 39.9284 55.702C40.3244 56.134 40.6304 56.656 40.8464 57.268C41.0744 57.868 41.1884 58.54 41.1884 59.284ZM38.9564 59.284C38.9564 58.348 38.7524 57.61 38.3444 57.07C37.9484 56.518 37.3904 56.242 36.6704 56.242C35.9504 56.242 35.3864 56.518 34.9784 57.07C34.5824 57.61 34.3844 58.348 34.3844 59.284C34.3844 60.232 34.5824 60.982 34.9784 61.534C35.3864 62.086 35.9504 62.362 36.6704 62.362C37.3904 62.362 37.9484 62.086 38.3444 61.534C38.7524 60.982 38.9564 60.232 38.9564 59.284ZM48.9762 56.548C48.7962 56.488 48.5442 56.428 48.2202 56.368C47.9082 56.296 47.5422 56.26 47.1222 56.26C46.8822 56.26 46.6242 56.284 46.3482 56.332C46.0842 56.38 45.8982 56.422 45.7902 56.458V64H43.6122V55.036C44.0322 54.88 44.5542 54.736 45.1782 54.604C45.8142 54.46 46.5162 54.388 47.2842 54.388C47.4282 54.388 47.5962 54.4 47.7882 54.424C47.9802 54.436 48.1722 54.46 48.3642 54.496C48.5562 54.52 48.7422 54.556 48.9222 54.604C49.1022 54.64 49.2462 54.676 49.3542 54.712L48.9762 56.548ZM53.2299 58.258C53.5059 57.97 53.7999 57.664 54.1119 57.34C54.4239 57.004 54.7299 56.674 55.0299 56.35C55.3299 56.014 55.6119 55.696 55.8759 55.396C56.1519 55.084 56.3859 54.814 56.5779 54.586H59.1519C58.5519 55.258 57.9159 55.954 57.2439 56.674C56.5839 57.394 55.9179 58.096 55.2459 58.78C55.6059 59.08 55.9839 59.446 56.3799 59.878C56.7759 60.298 57.1599 60.748 57.5319 61.228C57.9039 61.708 58.2519 62.188 58.5759 62.668C58.8999 63.148 59.1699 63.592 59.3859 64H56.8659C56.6499 63.628 56.3979 63.238 56.1099 62.83C55.8339 62.422 55.5339 62.026 55.2099 61.642C54.8859 61.258 54.5559 60.898 54.2199 60.562C53.8839 60.214 53.5539 59.92 53.2299 59.68V64H51.0519V50.392L53.2299 50.032V58.258ZM63.504 62.434C64.08 62.434 64.5 62.368 64.764 62.236C65.028 62.092 65.16 61.852 65.16 61.516C65.16 61.204 65.016 60.946 64.728 60.742C64.452 60.538 63.99 60.316 63.342 60.076C62.946 59.932 62.58 59.782 62.244 59.626C61.92 59.458 61.638 59.266 61.398 59.05C61.158 58.834 60.966 58.576 60.822 58.276C60.69 57.964 60.624 57.586 60.624 57.142C60.624 56.278 60.942 55.6 61.578 55.108C62.214 54.604 63.078 54.352 64.17 54.352C64.722 54.352 65.25 54.406 65.754 54.514C66.258 54.61 66.636 54.706 66.888 54.802L66.492 56.566C66.252 56.458 65.946 56.362 65.574 56.278C65.202 56.182 64.77 56.134 64.278 56.134C63.834 56.134 63.474 56.212 63.198 56.368C62.922 56.512 62.784 56.74 62.784 57.052C62.784 57.208 62.808 57.346 62.856 57.466C62.916 57.586 63.012 57.7 63.144 57.808C63.276 57.904 63.45 58.006 63.666 58.114C63.882 58.21 64.146 58.312 64.458 58.42C64.974 58.612 65.412 58.804 65.772 58.996C66.132 59.176 66.426 59.386 66.654 59.626C66.894 59.854 67.068 60.118 67.176 60.418C67.284 60.718 67.338 61.078 67.338 61.498C67.338 62.398 67.002 63.082 66.33 63.55C65.67 64.006 64.722 64.234 63.486 64.234C62.658 64.234 61.992 64.162 61.488 64.018C60.984 63.886 60.63 63.778 60.426 63.694L60.804 61.876C61.128 62.008 61.512 62.134 61.956 62.254C62.412 62.374 62.928 62.434 63.504 62.434Z" fill="#414449"/>
</svg>
